<svg xmlns="http://www.w3.org/2000/svg" viewBox="0 0 128 128" fill="none">
  <defs>
    <linearGradient id="grad-light" x1="0%" y1="0%" x2="100%" y2="100%">
      <stop offset="0%" style="stop-color:#9400FF;stop-opacity:1" />
      <stop offset="100%" style="stop-color:#7000CC;stop-opacity:1" />
    </linearGradient>
    <linearGradient id="grad-dark" x1="0%" y1="0%" x2="100%" y2="100%">
      <stop offset="0%" style="stop-color:#00FFFF;stop-opacity:1" />
      <stop offset="100%" style="stop-color:#00CCCC;stop-opacity:1" />
    </linearGradient>
  </defs>

  <!-- Fondo circular -->
  <circle class="bg-circle" cx="64" cy="64" r="60" />

  <!-- Calculadora/Documento base -->
  <rect class="main-shape" x="36" y="28" width="56" height="72" rx="6" />

  <!-- Pantalla de calculadora -->
  <rect class="screen" x="44" y="36" width="40" height="16" rx="2" />

  <!-- Números/Teclas -->
  <g class="numbers">
    <!-- Fila 1 -->
    <rect x="44" y="58" width="10" height="8" rx="1" />
    <rect x="59" y="58" width="10" height="8" rx="1" />
    <rect x="74" y="58" width="10" height="8" rx="1" />

    <!-- Fila 2 -->
    <rect x="44" y="70" width="10" height="8" rx="1" />
    <rect x="59" y="70" width="10" height="8" rx="1" />
    <rect x="74" y="70" width="10" height="8" rx="1" />

    <!-- Fila 3 -->
    <rect x="44" y="82" width="10" height="8" rx="1" />
    <rect x="59" y="82" width="10" height="8" rx="1" />
    <rect x="74" y="82" width="10" height="8" rx="1" />
  </g>

  <!-- Elementos de IA/Tech (circuitos) -->
  <g class="ai-elements">
    <!-- Nodos de circuito -->
    <circle cx="28" cy="40" r="3" />
    <circle cx="100" cy="40" r="3" />
    <circle cx="28" cy="88" r="3" />
    <circle cx="100" cy="88" r="3" />

    <!-- Líneas de conexión -->
    <path d="M 28 40 L 36 40" stroke-width="2" class="connection-line" />
    <path d="M 92 40 L 100 40" stroke-width="2" class="connection-line" />
    <path d="M 28 88 L 36 88" stroke-width="2" class="connection-line" />
    <path d="M 92 88 L 100 88" stroke-width="2" class="connection-line" />

    <!-- Líneas diagonales -->
    <path d="M 30 43 L 38 55" stroke-width="1.5" class="connection-line" opacity="0.6" />
    <path d="M 98 43 L 90 55" stroke-width="1.5" class="connection-line" opacity="0.6" />
  </g>

  <style>
    /* Light Mode */
    .bg-circle {
      fill: #F3F3F3;
    }

    .main-shape {
      fill: url(#grad-light);
    }

    .screen {
      fill: rgba(255, 255, 255, 0.9);
    }

    .numbers rect {
      fill: rgba(255, 255, 255, 0.7);
    }

    .ai-elements circle {
      fill: #9400FF;
    }

    .connection-line {
      stroke: #9400FF;
      fill: none;
    }

    /* Dark Mode */
    @media (prefers-color-scheme: dark) {
      .bg-circle {
        fill: #1a1a1a;
      }

      .main-shape {
        fill: url(#grad-dark);
      }

      .screen {
        fill: rgba(0, 0, 0, 0.7);
      }

      .numbers rect {
        fill: rgba(0, 0, 0, 0.5);
      }

      .ai-elements circle {
        fill: #00FFFF;
      }

      .connection-line {
        stroke: #00FFFF;
      }
    }
  </style>
</svg>
